Coordinates
version=1
nRows=9
nColumns=42
inDegrees=yes

Units are S.I. units (second, meters, Newtons, ...)
If the header above contains a line with 'inDegrees', this indicates whether rotational values are in degrees (yes) or radians (no).

endheader
time	pelvis_tilt	pelvis_list	pelvis_rotation	pelvis_tx	pelvis_ty	pelvis_tz	hip_flexion_r	hip_adduction_r	hip_rotation_r	knee_angle_r	knee_adduction_r	knee_angle_r_beta	ankle_angle_r	subtalar_angle_r	mtp_angle_r	hip_flexion_l	hip_adduction_l	hip_rotation_l	knee_angle_l	knee_adduction_l	knee_angle_l_beta	ankle_angle_l	subtalar_angle_l	mtp_angle_l	lumbar_extension	lumbar_bending	lumbar_rotation	arm_flex_r	arm_add_r	arm_rot_r	elbow_flex_r	pro_sup_r	wrist_flex_r	wrist_dev_r	arm_flex_l	arm_add_l	arm_rot_l	elbow_flex_l	pro_sup_l	wrist_flex_l	wrist_dev_l
      0.94000000	     23.11518890	      8.72754004	      5.14071074	     -0.41574858	      0.92239430	     -0.16328118	    -13.51767511	    -15.93057243	    -39.20338694	     67.74722796	    -19.30989209	      1.18241219	     15.58392145	     21.72604121	     -7.72720638	    -13.03593431	     14.27866287	    -14.43569402	     21.97343289	    -10.48649085	      0.38350875	     26.73201134	     30.32547894	     -7.72720638	    -49.80246431	     -3.64761252	     -5.76906290	      5.57423986	    -12.54562844	      6.49931986	     43.25709954	     90.00000001	      0.00000000	      0.00000000	      8.49086536	    -12.98036292	     -0.88918697	     40.22515598	     90.00000001	      0.00000000	      0.00000000
      0.95000000	     22.99317165	      8.77064795	      5.34345232	     -0.40422761	      0.92344313	     -0.16437339	    -11.29543403	    -16.06328478	    -39.13157474	     67.82341173	    -19.36267943	      1.18374184	     17.90112649	     21.47000221	     -7.72051808	    -14.25940344	     14.30475532	    -13.39455110	     21.16538294	    -10.20099688	      0.36940562	     27.07308462	     30.19423604	     -7.72051808	    -49.82488068	     -3.51728552	     -6.16819669	      5.50022979	    -12.21989006	      6.85475501	     42.70908918	     90.00000001	      0.00000000	      0.00000000	      9.52592478	    -13.42840876	     -0.64035093	     40.89307109	     90.00000001	      0.00000000	      0.00000000
      0.96000000	     22.83637961	      8.79146943	      5.53814806	     -0.39272897	      0.92422857	     -0.16545292	     -9.04249222	    -16.11796889	    -39.11703213	     67.50624630	    -19.49986211	      1.17820626	     19.36450851	     21.36626122	     -7.71442468	    -15.40811331	     14.28718174	    -12.50720196	     20.39440101	     -9.95284999	      0.35594945	     27.32284399	     29.99932513	     -7.71442468	    -49.80868545	     -3.38178074	     -6.48062803	      5.32249744	    -11.96277934	      7.15363431	     42.42380038	     90.00000001	      0.00000000	      0.00000000	     10.60294918	    -13.82679221	     -0.41442326	     41.58969474	     90.00000001	      0.00000000	      0.00000000
      0.97000000	     22.64785847	      8.80870704	      5.76618312	     -0.38124832	      0.92474643	     -0.16659683	     -6.80033943	    -16.14127097	    -39.14556577	     66.86912795	    -19.60983414	      1.16708645	     20.51389266	     21.28330787	     -7.70981615	    -16.49636741	     14.24698947	    -11.74126107	     19.65217393	     -9.75088907	      0.34299514	     27.56915211	     29.86774729	     -7.70981615	    -49.74541081	     -3.21262634	     -6.76240399	      5.08302583	    -11.76417249	      7.36557782	     42.31972610	     90.00000001	      0.00000000	      0.00000000	     11.69510012	    -14.15646636	     -0.26545425	     42.25283503	     90.00000001	      0.00000000	      0.00000000
      0.98000000	     22.48289007	      8.87508730	      6.04082863	     -0.36975497	      0.92502904	     -0.16780608	     -4.71020802	    -16.17105548	    -39.16165561	     65.91414175	    -19.59993578	      1.15041880	     21.73240074	     21.40603441	     -7.70537550	    -17.63651735	     14.25720240	    -10.86563857	     18.87956512	     -9.59270538	      0.32951057	     27.85311413	     29.78584257	     -7.70537550	    -49.69939691	     -3.05685998	     -7.12434257	      4.81469329	    -11.56018722	      7.57880861	     42.29669940	     90.00000001	      0.00000000	      0.00000000	     12.79875618	    -14.51959396	     -0.10765179	     42.94731856	     90.00000001	      0.00000000	      0.00000000
      0.99000000	     22.38098856	      9.00205340	      6.36151641	     -0.35820635	      0.92514675	     -0.16901082	     -2.83387644	    -16.23972294	    -39.16442225	     64.64125140	    -19.43138805	      1.12820267	     23.07895926	     22.10381973	     -7.69870007	    -18.88685184	     14.33389025	     -9.80576438	     18.08494969	     -9.50648873	      0.31564192	     28.08722492	     29.51472269	     -7.69870007	    -49.71408066	     -2.94231534	     -7.56012672	      4.50066094	    -11.36301908	      7.87130743	     42.42159830	     90.00000001	      0.00000000	      0.00000000	     13.85547488	    -14.97838270	      0.20018285	     43.78993277	     90.00000001	      0.00000000	      0.00000000
      1.00000000	     22.18786152	      9.10889596	      6.66804841	     -0.34664947	      0.92491647	     -0.17027179	     -0.89368766	    -16.30960811	    -39.21921519	     63.11736510	    -19.28749310	      1.10160584	     24.14314192	     23.28866778	     -7.68485881	    -20.01599133	     14.39759779	     -8.77370489	     17.32240276	     -9.42223732	      0.30233296	     28.22697670	     28.94465376	     -7.68485881	    -49.63840937	     -2.80060600	     -7.92638124	      4.11219564	    -11.28881777	      8.28607148	     42.76121353	     90.00000001	      0.00000000	      0.00000000	     14.86291536	    -15.46912578	      0.82672381	     44.73799179	     90.00000001	      0.00000000	      0.00000000
      1.01000000	     21.96012320	      9.17954238	      7.00304909	     -0.33504193	      0.92442137	     -0.17148458	      0.99948118	    -16.28092187	    -39.24850903	     61.33555352	    -19.01428516	      1.07050736	     24.81197876	     23.39253185	     -7.68117898	    -21.02490112	     14.36484393	     -8.14068894	     16.64897980	     -9.40158253	      0.29057951	     28.60306068	     29.06300159	     -7.68117898	    -49.50084422	     -2.63113136	     -8.25647930	      3.79444436	    -11.11693827	      8.36957384	     42.87505526	     90.00000001	      0.00000000	      0.00000000	     16.01070406	    -15.73098977	      0.84079936	     45.31389373	     90.00000001	      0.00000000	      0.00000000
      1.02000000	     21.81276220	      9.32864565	      7.31367105	     -0.32333755	      0.92379391	     -0.17272608	      2.63293778	    -16.38858442	    -39.29349071	     59.30375377	    -18.58475194	      1.03504576	     25.86391944	     25.20141928	     -7.67111520	    -22.23539713	     14.42400537	     -7.28266760	     15.82774595	     -9.36775226	      0.27624628	     28.81622490	     29.01972470	     -7.67111520	    -49.45357312	     -2.52111271	     -8.63295647	      3.36125777	    -11.02728394	      8.47885530	     43.38228347	     90.00000001	      0.00000000	      0.00000000	     17.05233720	    -16.08128229	      1.07910575	     46.18000332	     90.00000001	      0.00000000	      0.00000000
